<svg width="320" height="640" viewBox="0 0 320 640" fill="none" xmlns="http://www.w3.org/2000/svg">
<g clip-path="url(#clip0_602_330)">
<rect width="320" height="640" fill="#101010"/>
<path d="M72.2209 332.256L72.5 331L72.7791 332.256L74 332.5L72.7791 332.744L72.5 334L72.2209 332.744L71 332.5L72.2209 332.256Z" fill="white"/>
<path d="M72.5 331L72.1667 332.5L72.5 334L72.8333 332.5L72.5 331ZM74 332.5L72.5 332.2L71 332.5L72.5 332.8L74 332.5Z" stroke="white"/>
<path d="M119.221 321.256L119.5 320L119.779 321.256L121 321.5L119.779 321.744L119.5 323L119.221 321.744L118 321.5L119.221 321.256Z" fill="white"/>
<path d="M119.5 320L119.167 321.5L119.5 323L119.833 321.5L119.5 320ZM121 321.5L119.5 321.2L118 321.5L119.5 321.8L121 321.5Z" stroke="white"/>
<path d="M179.221 202.256L179.5 201L179.779 202.256L181 202.5L179.779 202.744L179.5 204L179.221 202.744L178 202.5L179.221 202.256Z" fill="white"/>
<path d="M179.5 201L179.167 202.5L179.5 204L179.833 202.5L179.5 201ZM181 202.5L179.5 202.2L178 202.5L179.5 202.8L181 202.5Z" stroke="white"/>
<path d="M239.221 83.2558L239.5 82L239.779 83.2558L241 83.5L239.779 83.7442L239.5 85L239.221 83.7442L238 83.5L239.221 83.2558Z" fill="white"/>
<path d="M239.5 82L239.167 83.5L239.5 85L239.833 83.5L239.5 82ZM241 83.5L239.5 83.2L238 83.5L239.5 83.8L241 83.5Z" stroke="white"/>
<path d="M249.221 254.256L249.5 253L249.779 254.256L251 254.5L249.779 254.744L249.5 256L249.221 254.744L248 254.5L249.221 254.256Z" fill="white"/>
<path d="M249.5 253L249.167 254.5L249.5 256L249.833 254.5L249.5 253ZM251 254.5L249.5 254.2L248 254.5L249.5 254.8L251 254.5Z" stroke="white"/>
<path d="M95.2209 44.2558L95.5 43L95.7791 44.2558L97 44.5L95.7791 44.7442L95.5 46L95.2209 44.7442L94 44.5L95.2209 44.2558Z" fill="white"/>
<path d="M95.5 43L95.1667 44.5L95.5 46L95.8333 44.5L95.5 43ZM97 44.5L95.5 44.2L94 44.5L95.5 44.8L97 44.5Z" stroke="white"/>
<path d="M25.2209 485.256L25.5 484L25.7791 485.256L27 485.5L25.7791 485.744L25.5 487L25.2209 485.744L24 485.5L25.2209 485.256Z" fill="white"/>
<path d="M25.5 484L25.1667 485.5L25.5 487L25.8333 485.5L25.5 484ZM27 485.5L25.5 485.2L24 485.5L25.5 485.8L27 485.5Z" stroke="white"/>
<path d="M256.221 475.256L256.5 474L256.779 475.256L258 475.5L256.779 475.744L256.5 477L256.221 475.744L255 475.5L256.221 475.256Z" fill="white"/>
<path d="M256.5 474L256.167 475.5L256.5 477L256.833 475.5L256.5 474ZM258 475.5L256.5 475.2L255 475.5L256.5 475.8L258 475.5Z" stroke="white"/>
<path d="M151.221 516.256L151.5 515L151.779 516.256L153 516.5L151.779 516.744L151.5 518L151.221 516.744L150 516.5L151.221 516.256Z" fill="white"/>
<path d="M151.5 515L151.167 516.5L151.5 518L151.833 516.5L151.5 515ZM153 516.5L151.5 516.2L150 516.5L151.5 516.8L153 516.5Z" stroke="white"/>
<path d="M184.221 627.256L184.5 626L184.779 627.256L186 627.5L184.779 627.744L184.5 629L184.221 627.744L183 627.5L184.221 627.256Z" fill="white"/>
<path d="M184.5 626L184.167 627.5L184.5 629L184.833 627.5L184.5 626ZM186 627.5L184.5 627.2L183 627.5L184.5 627.8L186 627.5Z" stroke="white"/>
<path d="M16.2209 620.256L16.5 619L16.7791 620.256L18 620.5L16.7791 620.744L16.5 622L16.2209 620.744L15 620.5L16.2209 620.256Z" fill="white"/>
<path d="M16.5 619L16.1667 620.5L16.5 622L16.8333 620.5L16.5 619ZM18 620.5L16.5 620.2L15 620.5L16.5 620.8L18 620.5Z" stroke="white"/>
<path d="M312.221 535.256L312.5 534L312.779 535.256L314 535.5L312.779 535.744L312.5 537L312.221 535.744L311 535.5L312.221 535.256Z" fill="white"/>
<path d="M312.5 534L312.167 535.5L312.5 537L312.833 535.5L312.5 534ZM314 535.5L312.5 535.2L311 535.5L312.5 535.8L314 535.5Z" stroke="white"/>
<path d="M28.2209 215.256L28.5 214L28.7791 215.256L30 215.5L28.7791 215.744L28.5 217L28.2209 215.744L27 215.5L28.2209 215.256Z" fill="white"/>
<path d="M28.5 214L28.1667 215.5L28.5 217L28.8333 215.5L28.5 214ZM30 215.5L28.5 215.2L27 215.5L28.5 215.8L30 215.5Z" stroke="white"/>
<path d="M290.221 30.2558L290.5 29L290.779 30.2558L292 30.5L290.779 30.7442L290.5 32L290.221 30.7442L289 30.5L290.221 30.2558Z" fill="white"/>
<path d="M290.5 29L290.167 30.5L290.5 32L290.833 30.5L290.5 29ZM292 30.5L290.5 30.2L289 30.5L290.5 30.8L292 30.5Z" stroke="white"/>
<path d="M128.221 407.256L128.5 406L128.779 407.256L130 407.5L128.779 407.744L128.5 409L128.221 407.744L127 407.5L128.221 407.256Z" fill="white"/>
<path d="M128.5 406L128.167 407.5L128.5 409L128.833 407.5L128.5 406ZM130 407.5L128.5 407.2L127 407.5L128.5 407.8L130 407.5Z" stroke="white"/>
<path d="M222.221 366.256L222.5 365L222.779 366.256L224 366.5L222.779 366.744L222.5 368L222.221 366.744L221 366.5L222.221 366.256Z" fill="white"/>
<path d="M222.5 365L222.167 366.5L222.5 368L222.833 366.5L222.5 365ZM224 366.5L222.5 366.2L221 366.5L222.5 366.8L224 366.5Z" stroke="white"/>
</g>
<defs>
<clipPath id="clip0_602_330">
<rect width="320" height="640" fill="white"/>
</clipPath>
</defs>
</svg>
