<svg width="320" height="640" viewBox="0 0 320 640" fill="none" xmlns="http://www.w3.org/2000/svg">
<g clip-path="url(#clip0_602_385)">
<rect width="320" height="640" fill="#101010"/>
<path d="M72.2209 332.256L72.5 331L72.7791 332.256L74 332.5L72.7791 332.744L72.5 334L72.2209 332.744L71 332.5L72.2209 332.256Z" fill="white"/>
<path d="M72.5 331L72.1667 332.5L72.5 334L72.8333 332.5L72.5 331ZM74 332.5L72.5 332.2L71 332.5L72.5 332.8L74 332.5Z" stroke="white"/>
<path d="M119.221 321.256L119.5 320L119.779 321.256L121 321.5L119.779 321.744L119.5 323L119.221 321.744L118 321.5L119.221 321.256Z" fill="white"/>
<path d="M119.5 320L119.167 321.5L119.5 323L119.833 321.5L119.5 320ZM121 321.5L119.5 321.2L118 321.5L119.5 321.8L121 321.5Z" stroke="white"/>
<path d="M179.221 202.256L179.5 201L179.779 202.256L181 202.5L179.779 202.744L179.5 204L179.221 202.744L178 202.5L179.221 202.256Z" fill="white"/>
<path d="M179.5 201L179.167 202.5L179.5 204L179.833 202.5L179.5 201ZM181 202.5L179.5 202.2L178 202.5L179.5 202.8L181 202.5Z" stroke="white"/>
<path d="M239.221 83.2558L239.5 82L239.779 83.2558L241 83.5L239.779 83.7442L239.5 85L239.221 83.7442L238 83.5L239.221 83.2558Z" fill="white"/>
<path d="M239.5 82L239.167 83.5L239.5 85L239.833 83.5L239.5 82ZM241 83.5L239.5 83.2L238 83.5L239.5 83.8L241 83.5Z" stroke="white"/>
<path d="M106.221 103.256L106.5 102L106.779 103.256L108 103.5L106.779 103.744L106.5 105L106.221 103.744L105 103.5L106.221 103.256Z" fill="white"/>
<path d="M106.5 102L106.167 103.5L106.5 105L106.833 103.5L106.5 102ZM108 103.5L106.5 103.2L105 103.5L106.5 103.8L108 103.5Z" stroke="white"/>
<path d="M75.2209 166.256L75.5 165L75.7791 166.256L77 166.5L75.7791 166.744L75.5 168L75.2209 166.744L74 166.5L75.2209 166.256Z" fill="white"/>
<path d="M75.5 165L75.1667 166.5L75.5 168L75.8333 166.5L75.5 165ZM77 166.5L75.5 166.2L74 166.5L75.5 166.8L77 166.5Z" stroke="white"/>
<path d="M116.221 247.256L116.5 246L116.779 247.256L118 247.5L116.779 247.744L116.5 249L116.221 247.744L115 247.5L116.221 247.256Z" fill="white"/>
<path d="M116.5 246L116.167 247.5L116.5 249L116.833 247.5L116.5 246ZM118 247.5L116.5 247.2L115 247.5L116.5 247.8L118 247.5Z" stroke="white"/>
<path d="M249.221 254.256L249.5 253L249.779 254.256L251 254.5L249.779 254.744L249.5 256L249.221 254.744L248 254.5L249.221 254.256Z" fill="white"/>
<path d="M249.5 253L249.167 254.5L249.5 256L249.833 254.5L249.5 253ZM251 254.5L249.5 254.2L248 254.5L249.5 254.8L251 254.5Z" stroke="white"/>
<path d="M269.221 177.256L269.5 176L269.779 177.256L271 177.5L269.779 177.744L269.5 179L269.221 177.744L268 177.5L269.221 177.256Z" fill="white"/>
<path d="M269.5 176L269.167 177.5L269.5 179L269.833 177.5L269.5 176ZM271 177.5L269.5 177.2L268 177.5L269.5 177.8L271 177.5Z" stroke="white"/>
<path d="M95.2209 44.2558L95.5 43L95.7791 44.2558L97 44.5L95.7791 44.7442L95.5 46L95.2209 44.7442L94 44.5L95.2209 44.2558Z" fill="white"/>
<path d="M95.5 43L95.1667 44.5L95.5 46L95.8333 44.5L95.5 43ZM97 44.5L95.5 44.2L94 44.5L95.5 44.8L97 44.5Z" stroke="white"/>
<path d="M25.2209 485.256L25.5 484L25.7791 485.256L27 485.5L25.7791 485.744L25.5 487L25.2209 485.744L24 485.5L25.2209 485.256Z" fill="white"/>
<path d="M25.5 484L25.1667 485.5L25.5 487L25.8333 485.5L25.5 484ZM27 485.5L25.5 485.2L24 485.5L25.5 485.8L27 485.5Z" stroke="white"/>
<path d="M256.221 475.256L256.5 474L256.779 475.256L258 475.5L256.779 475.744L256.5 477L256.221 475.744L255 475.5L256.221 475.256Z" fill="white"/>
<path d="M256.5 474L256.167 475.5L256.5 477L256.833 475.5L256.5 474ZM258 475.5L256.5 475.2L255 475.5L256.5 475.8L258 475.5Z" stroke="white"/>
<path d="M151.221 516.256L151.5 515L151.779 516.256L153 516.5L151.779 516.744L151.5 518L151.221 516.744L150 516.5L151.221 516.256Z" fill="white"/>
<path d="M151.5 515L151.167 516.5L151.5 518L151.833 516.5L151.5 515ZM153 516.5L151.5 516.2L150 516.5L151.5 516.8L153 516.5Z" stroke="white"/>
<path d="M248.221 580.256L248.5 579L248.779 580.256L250 580.5L248.779 580.744L248.5 582L248.221 580.744L247 580.5L248.221 580.256Z" fill="white"/>
<path d="M248.5 579L248.167 580.5L248.5 582L248.833 580.5L248.5 579ZM250 580.5L248.5 580.2L247 580.5L248.5 580.8L250 580.5Z" stroke="white"/>
<path d="M89.2209 577.256L89.5 576L89.7791 577.256L91 577.5L89.7791 577.744L89.5 579L89.2209 577.744L88 577.5L89.2209 577.256Z" fill="white"/>
<path d="M89.5 576L89.1667 577.5L89.5 579L89.8333 577.5L89.5 576ZM91 577.5L89.5 577.2L88 577.5L89.5 577.8L91 577.5Z" stroke="white"/>
<path d="M184.221 627.256L184.5 626L184.779 627.256L186 627.5L184.779 627.744L184.5 629L184.221 627.744L183 627.5L184.221 627.256Z" fill="white"/>
<path d="M184.5 626L184.167 627.5L184.5 629L184.833 627.5L184.5 626ZM186 627.5L184.5 627.2L183 627.5L184.5 627.8L186 627.5Z" stroke="white"/>
<path d="M205.221 543.256L205.5 542L205.779 543.256L207 543.5L205.779 543.744L205.5 545L205.221 543.744L204 543.5L205.221 543.256Z" fill="white"/>
<path d="M205.5 542L205.167 543.5L205.5 545L205.833 543.5L205.5 542ZM207 543.5L205.5 543.2L204 543.5L205.5 543.8L207 543.5Z" stroke="white"/>
<path d="M43.2209 415.256L43.5 414L43.7791 415.256L45 415.5L43.7791 415.744L43.5 417L43.2209 415.744L42 415.5L43.2209 415.256Z" fill="white"/>
<path d="M43.5 414L43.1667 415.5L43.5 417L43.8333 415.5L43.5 414ZM45 415.5L43.5 415.2L42 415.5L43.5 415.8L45 415.5Z" stroke="white"/>
<path d="M202.221 292.256L202.5 291L202.779 292.256L204 292.5L202.779 292.744L202.5 294L202.221 292.744L201 292.5L202.221 292.256Z" fill="white"/>
<path d="M202.5 291L202.167 292.5L202.5 294L202.833 292.5L202.5 291ZM204 292.5L202.5 292.2L201 292.5L202.5 292.8L204 292.5Z" stroke="white"/>
<path d="M31.2209 80.2558L31.5 79L31.7791 80.2558L33 80.5L31.7791 80.7442L31.5 82L31.2209 80.7442L30 80.5L31.2209 80.2558Z" fill="white"/>
<path d="M31.5 79L31.1667 80.5L31.5 82L31.8333 80.5L31.5 79ZM33 80.5L31.5 80.2L30 80.5L31.5 80.8L33 80.5Z" stroke="white"/>
<path d="M176.221 62.2558L176.5 61L176.779 62.2558L178 62.5L176.779 62.7442L176.5 64L176.221 62.7442L175 62.5L176.221 62.2558Z" fill="white"/>
<path d="M176.5 61L176.167 62.5L176.5 64L176.833 62.5L176.5 61ZM178 62.5L176.5 62.2L175 62.5L176.5 62.8L178 62.5Z" stroke="white"/>
<path d="M289.221 351.256L289.5 350L289.779 351.256L291 351.5L289.779 351.744L289.5 353L289.221 351.744L288 351.5L289.221 351.256Z" fill="white"/>
<path d="M289.5 350L289.167 351.5L289.5 353L289.833 351.5L289.5 350ZM291 351.5L289.5 351.2L288 351.5L289.5 351.8L291 351.5Z" stroke="white"/>
<path d="M223.221 16.2558L223.5 15L223.779 16.2558L225 16.5L223.779 16.7442L223.5 18L223.221 16.7442L222 16.5L223.221 16.2558Z" fill="white"/>
<path d="M223.5 15L223.167 16.5L223.5 18L223.833 16.5L223.5 15ZM225 16.5L223.5 16.2L222 16.5L223.5 16.8L225 16.5Z" stroke="white"/>
<path d="M22.2209 27.2558L22.5 26L22.7791 27.2558L24 27.5L22.7791 27.7442L22.5 29L22.2209 27.7442L21 27.5L22.2209 27.2558Z" fill="white"/>
<path d="M22.5 26L22.1667 27.5L22.5 29L22.8333 27.5L22.5 26ZM24 27.5L22.5 27.2L21 27.5L22.5 27.8L24 27.5Z" stroke="white"/>
<path d="M199.221 450.256L199.5 449L199.779 450.256L201 450.5L199.779 450.744L199.5 452L199.221 450.744L198 450.5L199.221 450.256Z" fill="white"/>
<path d="M199.5 449L199.167 450.5L199.5 452L199.833 450.5L199.5 449ZM201 450.5L199.5 450.2L198 450.5L199.5 450.8L201 450.5Z" stroke="white"/>
<path d="M292.221 415.256L292.5 414L292.779 415.256L294 415.5L292.779 415.744L292.5 417L292.221 415.744L291 415.5L292.221 415.256Z" fill="white"/>
<path d="M292.5 414L292.167 415.5L292.5 417L292.833 415.5L292.5 414ZM294 415.5L292.5 415.2L291 415.5L292.5 415.8L294 415.5Z" stroke="white"/>
<path d="M25.2209 305.256L25.5 304L25.7791 305.256L27 305.5L25.7791 305.744L25.5 307L25.2209 305.744L24 305.5L25.2209 305.256Z" fill="white"/>
<path d="M25.5 304L25.1667 305.5L25.5 307L25.8333 305.5L25.5 304ZM27 305.5L25.5 305.2L24 305.5L25.5 305.8L27 305.5Z" stroke="white"/>
<path d="M16.2209 620.256L16.5 619L16.7791 620.256L18 620.5L16.7791 620.744L16.5 622L16.2209 620.744L15 620.5L16.2209 620.256Z" fill="white"/>
<path d="M16.5 619L16.1667 620.5L16.5 622L16.8333 620.5L16.5 619ZM18 620.5L16.5 620.2L15 620.5L16.5 620.8L18 620.5Z" stroke="white"/>
<path d="M312.221 535.256L312.5 534L312.779 535.256L314 535.5L312.779 535.744L312.5 537L312.221 535.744L311 535.5L312.221 535.256Z" fill="white"/>
<path d="M312.5 534L312.167 535.5L312.5 537L312.833 535.5L312.5 534ZM314 535.5L312.5 535.2L311 535.5L312.5 535.8L314 535.5Z" stroke="white"/>
<path d="M28.2209 215.256L28.5 214L28.7791 215.256L30 215.5L28.7791 215.744L28.5 217L28.2209 215.744L27 215.5L28.2209 215.256Z" fill="white"/>
<path d="M28.5 214L28.1667 215.5L28.5 217L28.8333 215.5L28.5 214ZM30 215.5L28.5 215.2L27 215.5L28.5 215.8L30 215.5Z" stroke="white"/>
<path d="M290.221 30.2558L290.5 29L290.779 30.2558L292 30.5L290.779 30.7442L290.5 32L290.221 30.7442L289 30.5L290.221 30.2558Z" fill="white"/>
<path d="M290.5 29L290.167 30.5L290.5 32L290.833 30.5L290.5 29ZM292 30.5L290.5 30.2L289 30.5L290.5 30.8L292 30.5Z" stroke="white"/>
<path d="M128.221 407.256L128.5 406L128.779 407.256L130 407.5L128.779 407.744L128.5 409L128.221 407.744L127 407.5L128.221 407.256Z" fill="white"/>
<path d="M128.5 406L128.167 407.5L128.5 409L128.833 407.5L128.5 406ZM130 407.5L128.5 407.2L127 407.5L128.5 407.8L130 407.5Z" stroke="white"/>
<path d="M222.221 366.256L222.5 365L222.779 366.256L224 366.5L222.779 366.744L222.5 368L222.221 366.744L221 366.5L222.221 366.256Z" fill="white"/>
<path d="M222.5 365L222.167 366.5L222.5 368L222.833 366.5L222.5 365ZM224 366.5L222.5 366.2L221 366.5L222.5 366.8L224 366.5Z" stroke="white"/>
</g>
<defs>
<clipPath id="clip0_602_385">
<rect width="320" height="640" fill="white"/>
</clipPath>
</defs>
</svg>
